<svg width="27" height="27" viewBox="0 0 27 27" fill="none" xmlns="http://www.w3.org/2000/svg">
<path d="M26.9932 13.5447C26.9932 15.3243 26.9984 17.1039 26.9923 18.8843C26.9776 23.0477 24.2158 26.271 20.1058 26.9212C19.807 26.9681 19.5003 26.9811 19.1971 26.982C15.4042 26.9863 11.6113 27.0254 7.81921 26.9733C4.05061 26.9221 0.972661 24.3499 0.176894 20.6683C0.0526644 20.0945 0.0144398 19.492 0.0118335 18.9026C-0.00293506 15.3 -0.00293506 11.6965 0.00662109 8.09388C0.017046 3.95912 2.78225 0.735871 6.86968 0.082193C7.18242 0.0318432 7.50386 0.0188218 7.82182 0.0179537C11.6 0.0136132 15.379 -0.0245832 19.1572 0.0257665C22.9518 0.0761163 26.0341 2.64743 26.8255 6.3516C26.9515 6.94017 26.9793 7.55652 26.9863 8.16072C27.0062 9.95595 26.9932 11.7503 26.9932 13.5447ZM2.45734 13.5056C2.45734 15.3008 2.4556 17.0952 2.45821 18.8904C2.46255 22.1623 4.8264 24.5313 8.09721 24.5357C11.7034 24.54 15.3095 24.5409 18.9156 24.5357C22.1621 24.5313 24.5364 22.1614 24.5407 18.9208C24.546 15.3026 24.546 11.6835 24.5407 8.06523C24.5355 4.84806 22.1613 2.4712 18.946 2.46512C15.3112 2.45905 11.6764 2.45818 8.04074 2.46512C4.84812 2.4712 2.4669 4.8524 2.45821 8.03485C2.453 9.85872 2.45734 11.6817 2.45734 13.5056Z" fill="#75B051"/>
<path d="M13.5042 6.13477C17.5508 6.13911 20.8868 9.48824 20.8685 13.5275C20.8503 17.5572 17.5213 20.8699 13.4929 20.8664C9.44893 20.8629 6.11209 17.5129 6.1286 13.4728C6.14598 9.44483 9.47673 6.13043 13.5042 6.13477ZM13.5068 18.4001C16.2442 18.3923 18.4204 16.2056 18.4022 13.4815C18.3839 10.7565 16.2364 8.61319 13.5129 8.60104C10.7833 8.58889 8.5993 10.7643 8.59583 13.4971C8.59235 16.2273 10.7772 18.4088 13.5068 18.4001Z" fill="#75B051"/>
<path d="M20.7365 7.35401C20.1154 7.34967 19.648 6.87743 19.648 6.25413C19.648 5.61695 20.1397 5.14036 20.7809 5.15512C21.3942 5.16901 21.859 5.65688 21.8494 6.2767C21.839 6.89305 21.3586 7.35922 20.7365 7.35401Z" fill="#75B051"/>
</svg>
