<svg width="60" height="77" viewBox="0 0 57 77" fill="none" xmlns="http://www.w3.org/2000/svg">
<circle cx="31" cy="27" r="27" fill="#75B051"/>
<path d="M33.7623 44.4889C33.7623 44.4889 32.3458 38.048 36.0162 34.5889C39.6866 31.1297 45.5875 29.9402 45.5875 29.9402C45.5875 29.9402 47.7788 36.7019 43.2475 41.155C38.7162 45.608 33.7623 44.4889 33.7623 44.4889Z" stroke="white" stroke-width="0.287384" stroke-miterlimit="10"/>
<path d="M31.3207 49.349C31.3207 49.349 32.8155 46.8055 34.9364 42.7203C37.0651 38.6351 39.6399 35.6299 39.6399 35.6299" stroke="white" stroke-width="0.287384" stroke-miterlimit="10"/>
<path d="M28.2601 45.342C28.2601 45.342 31.6096 38.1107 28.174 33.0785C24.7383 28.0464 18.094 25.1116 18.094 25.1116C18.094 25.1116 13.7505 32.515 17.9375 38.9481C22.1244 45.3811 28.2601 45.342 28.2601 45.342Z" stroke="white" stroke-width="0.287384" stroke-miterlimit="10"/>
<path d="M32.0801 50.5696C32.0801 50.5696 29.9123 47.7444 26.3045 43.5027C22.6966 39.2609 20.5132 35.0114 20.5132 35.0114" stroke="white" stroke-width="0.287384" stroke-miterlimit="10"/>
<path d="M18.211 11.3232L16.8884 11.6519L16.5441 10.2902L18.7197 9.64062H19.8545V17.2632H18.211V11.3232Z" fill="white"/>
<path d="M24.7927 17.3948C24.2919 17.3948 23.8301 17.2931 23.4153 17.0974C23.0006 16.9018 22.6484 16.6279 22.3588 16.2757C22.0692 15.9235 21.8423 15.5166 21.6858 15.0392C21.5293 14.5618 21.451 14.0531 21.451 13.5052V13.4818C21.451 12.9339 21.5292 12.4252 21.6936 11.9479C21.8579 11.4705 22.0849 11.0557 22.3823 10.7035C22.6797 10.3513 23.0319 10.0696 23.4466 9.87394C23.8614 9.67046 24.3232 9.56873 24.824 9.56873C25.3249 9.56873 25.7788 9.67046 26.1936 9.86612C26.6084 10.0618 26.9606 10.3357 27.2501 10.6879C27.5397 11.04 27.7666 11.447 27.931 11.9244C28.0953 12.4018 28.1736 12.9105 28.1736 13.4583V13.4818C28.1736 14.0296 28.0953 14.5383 27.931 15.0157C27.7666 15.4931 27.5397 15.9079 27.2423 16.26C26.9449 16.6122 26.5927 16.8939 26.1779 17.0896C25.7553 17.2931 25.2936 17.3948 24.7927 17.3948ZM24.8084 15.8766C25.0588 15.8766 25.2858 15.8139 25.4892 15.6966C25.6927 15.5792 25.8649 15.4148 26.0058 15.2035C26.1466 14.9922 26.2562 14.7418 26.3345 14.4522C26.4127 14.1626 26.4519 13.8418 26.4519 13.4974V13.4739C26.4519 13.1296 26.4127 12.8087 26.3345 12.5192C26.2562 12.2296 26.1388 11.9713 25.9901 11.76C25.8414 11.5409 25.6693 11.3766 25.4579 11.2513C25.2545 11.1261 25.0275 11.0713 24.7849 11.0713C24.5345 11.0713 24.3075 11.1339 24.104 11.2513C23.9006 11.3687 23.7284 11.5331 23.5875 11.7444C23.4466 11.9557 23.3371 12.2061 23.2588 12.4957C23.1806 12.7852 23.1414 13.1061 23.1414 13.4505V13.4739C23.1414 13.8183 23.1806 14.1392 23.2588 14.4287C23.3371 14.7261 23.4466 14.9766 23.5953 15.1879C23.7362 15.3992 23.9162 15.5635 24.1197 15.6887C24.331 15.8218 24.5579 15.8766 24.8084 15.8766Z" fill="white"/>
<path d="M32.6807 17.3948C32.1798 17.3948 31.7181 17.2931 31.3033 17.0974C30.8885 16.9018 30.5363 16.6279 30.2468 16.2757C29.9572 15.9235 29.7302 15.5166 29.5737 15.0392C29.4172 14.5618 29.3389 14.0531 29.3389 13.5052V13.4818C29.3389 12.9339 29.4172 12.4252 29.5815 11.9479C29.7459 11.4705 29.9728 11.0557 30.2702 10.7035C30.5676 10.3513 30.9198 10.0696 31.3346 9.87394C31.7494 9.67046 32.2111 9.56873 32.712 9.56873C33.2128 9.56873 33.6668 9.67046 34.0815 9.86612C34.4963 10.0618 34.8485 10.3357 35.1381 10.6879C35.4276 11.04 35.6546 11.447 35.8189 11.9244C35.9833 12.4018 36.0615 12.9105 36.0615 13.4583V13.4818C36.0615 14.0296 35.9833 14.5383 35.8189 15.0157C35.6546 15.4931 35.4276 15.9079 35.1302 16.26C34.8328 16.6122 34.4807 16.8939 34.0659 17.0896C33.6511 17.2931 33.1894 17.3948 32.6807 17.3948ZM32.7041 15.8766C32.9546 15.8766 33.1815 15.8139 33.385 15.6966C33.5885 15.5792 33.7607 15.4148 33.9015 15.2035C34.0424 14.9922 34.152 14.7418 34.2302 14.4522C34.3085 14.1626 34.3476 13.8418 34.3476 13.4974V13.4739C34.3476 13.1296 34.3085 12.8087 34.2302 12.5192C34.152 12.2296 34.0346 11.9713 33.8859 11.76C33.7372 11.5409 33.565 11.3766 33.3537 11.2513C33.1502 11.1418 32.9311 11.0792 32.6807 11.0792C32.4302 11.0792 32.2033 11.1418 31.9998 11.2592C31.7963 11.3766 31.6241 11.5409 31.4833 11.7522C31.3424 11.9635 31.2328 12.2139 31.1546 12.5035C31.0763 12.7931 31.0372 13.1139 31.0372 13.4583V13.4818C31.0372 13.8261 31.0763 14.147 31.1546 14.4366C31.2328 14.7339 31.3424 14.9844 31.4911 15.1957C31.632 15.407 31.812 15.5713 32.0155 15.6966C32.2268 15.8218 32.4537 15.8766 32.7041 15.8766Z" fill="white"/>
<path d="M38.9586 13.4741C38.6846 13.4741 38.4342 13.4271 38.2151 13.3254C37.9881 13.2237 37.8003 13.0906 37.636 12.9185C37.4716 12.7463 37.3464 12.5428 37.2603 12.3158C37.1742 12.0889 37.1273 11.8385 37.1273 11.5724V11.5489C37.1273 11.2828 37.1742 11.0324 37.2603 10.7976C37.3542 10.5628 37.4794 10.3593 37.636 10.1793C37.8003 9.99932 37.996 9.86628 38.2229 9.76454C38.4499 9.6628 38.7003 9.61584 38.9742 9.61584C39.2481 9.61584 39.4986 9.6628 39.7177 9.76454C39.9447 9.86628 40.1325 9.99932 40.2968 10.1715C40.4612 10.3437 40.5864 10.5471 40.6725 10.7741C40.7586 11.0011 40.8055 11.2515 40.8055 11.5176V11.5411C40.8055 11.8071 40.7586 12.0576 40.6725 12.2924C40.5864 12.5271 40.4533 12.7306 40.2968 12.9106C40.1325 13.0906 39.9368 13.2237 39.7099 13.3254C39.4829 13.4271 39.2325 13.4741 38.9586 13.4741ZM43.4116 9.69411H44.6951L41.6664 13.7715L39.1699 17.2619H37.8864L40.9151 13.1845L43.4116 9.69411ZM38.9586 10.5941C38.7316 10.5941 38.5516 10.688 38.442 10.868C38.3246 11.0558 38.2699 11.2671 38.2699 11.5254V11.5489C38.2699 11.7993 38.3325 12.0263 38.4655 12.2141C38.5986 12.4019 38.7707 12.5037 38.982 12.5037C39.209 12.5037 39.389 12.4098 39.4986 12.2219C39.6081 12.0341 39.6707 11.815 39.6707 11.5724V11.5489C39.6707 11.2985 39.6081 11.0715 39.4751 10.8837C39.3499 10.688 39.1699 10.5941 38.9586 10.5941ZM43.6073 17.348C43.3333 17.348 43.0829 17.3011 42.8638 17.1993C42.6368 17.0976 42.449 16.9645 42.2846 16.7845C42.1203 16.6124 41.9951 16.4089 41.909 16.1819C41.8229 15.955 41.776 15.7045 41.776 15.4385V15.415C41.776 15.1489 41.8229 14.8985 41.909 14.6637C41.9951 14.4289 42.1281 14.2254 42.2846 14.0454C42.449 13.8654 42.6446 13.7324 42.8716 13.6306C43.0986 13.5289 43.349 13.4819 43.6229 13.4819C43.8968 13.4819 44.1473 13.5289 44.3664 13.6306C44.5933 13.7324 44.7812 13.8654 44.9455 14.0454C45.1099 14.2176 45.2351 14.4211 45.3212 14.648C45.4073 14.875 45.4542 15.1254 45.4542 15.3915V15.415C45.4542 15.6811 45.4073 15.9315 45.3212 16.1663C45.2273 16.4011 45.102 16.6045 44.9455 16.7845C44.7812 16.9645 44.5855 17.0976 44.3586 17.1993C44.1316 17.3011 43.8812 17.348 43.6073 17.348ZM43.6307 16.3698C43.8577 16.3698 44.0377 16.2758 44.1473 16.088C44.2647 15.9002 44.3194 15.6811 44.3194 15.4385V15.415C44.3194 15.1645 44.2568 14.9376 44.1238 14.7498C43.9907 14.5619 43.8186 14.4602 43.6073 14.4602C43.3803 14.4602 43.2003 14.5541 43.0907 14.7341C42.9733 14.9141 42.9186 15.1332 42.9186 15.3915V15.415C42.9186 15.6654 42.9812 15.8924 43.1142 16.0802C43.2394 16.268 43.4116 16.3698 43.6307 16.3698Z" fill="white"/>
<path d="M16.5995 19.6027H17.2334V20.7374H18.3995V19.6027H19.0334V22.4748H18.3995V21.3244H17.2334V22.4748H16.5995V19.6027Z" fill="white"/>
<path d="M20.6996 19.5782H21.2787L22.5074 22.4661H21.85L21.5917 21.8243H20.3787L20.1204 22.4661H19.4787L20.6996 19.5782ZM21.3648 21.2687L20.9813 20.3374L20.5978 21.2687H21.3648Z" fill="white"/>
<path d="M23.2517 20.1809H22.383V19.6018H24.7621V20.1809H23.8856V22.4662H23.2517V20.1809Z" fill="white"/>
<path d="M25.5204 22.4662L26.0839 21.4801L24.9804 19.594H25.6926L26.4361 20.9088L27.117 19.594H27.8213L26.2248 22.4662H25.5204Z" fill="white"/>
<path d="M28.2058 19.6018H29.3797C29.5519 19.6018 29.7084 19.6253 29.8415 19.6722C29.9745 19.7192 30.0919 19.7896 30.1858 19.8757C30.2797 19.9618 30.3502 20.0714 30.4049 20.1888C30.4519 20.314 30.4832 20.447 30.4832 20.5957V20.6035C30.4832 20.7679 30.4519 20.9166 30.3893 21.0418C30.3267 21.167 30.2484 21.2688 30.1389 21.3549C30.0293 21.4409 29.9119 21.5035 29.771 21.5427C29.6302 21.5818 29.4815 21.6053 29.3171 21.6053H28.8397V22.4662H28.2058V19.6018ZM29.3328 21.0418C29.4893 21.0418 29.6145 21.0027 29.7006 20.9166C29.7867 20.8305 29.8336 20.7288 29.8336 20.6114V20.6035C29.8336 20.4627 29.7867 20.3531 29.6928 20.2827C29.5989 20.2122 29.4736 20.1731 29.3171 20.1731H28.8319V21.0496H29.3328V21.0418Z" fill="white"/>
<path d="M31.6412 19.5782H32.2204L33.4491 22.4661H32.7917L32.5334 21.8243H31.3204L31.0621 22.4661H30.4125L31.6412 19.5782ZM32.3065 21.2687L31.923 20.3374L31.5395 21.2687H32.3065Z" fill="white"/>
<path d="M36.5252 22.4661H35.8287L35.0304 20.4626L34.2478 22.4661H33.5669L34.7643 19.5782H35.32L36.5252 22.4661Z" fill="white"/>
<path d="M36.9627 19.6018H37.5966V20.5018H38.1053C38.2775 20.5018 38.434 20.5253 38.5748 20.5644C38.7157 20.6035 38.8331 20.6662 38.9349 20.7444C39.0366 20.8227 39.107 20.9244 39.1618 21.0496C39.2166 21.1748 39.2401 21.3079 39.2401 21.4722C39.2401 21.7775 39.1383 22.0201 38.9427 22.2001C38.747 22.3801 38.4575 22.4662 38.0818 22.4662H36.9705V19.6018H36.9627ZM38.0896 21.8948C38.2462 21.8948 38.3714 21.8635 38.4575 21.7931C38.5514 21.7227 38.5905 21.6209 38.5905 21.4801C38.5905 21.347 38.5514 21.2453 38.4653 21.1748C38.3792 21.1044 38.254 21.0653 38.0896 21.0653H37.5888V21.8948H38.0896Z" fill="white"/>
<path d="M39.7253 19.6018H40.3592V20.7366H41.5253V19.6018H42.1592V22.474H41.5253V21.3235H40.3514V22.474H39.7253V19.6018Z" fill="white"/>
<path d="M44.234 22.5131C44.0148 22.5131 43.8114 22.474 43.6235 22.3957C43.4357 22.3174 43.2792 22.2157 43.1383 22.0827C43.0053 21.9496 42.8957 21.7931 42.8253 21.6131C42.747 21.4331 42.7157 21.2453 42.7157 21.034V21.0261C42.7157 20.8227 42.7548 20.627 42.8331 20.447C42.9114 20.267 43.0131 20.1105 43.154 19.9774C43.287 19.8444 43.4514 19.7348 43.6392 19.6566C43.827 19.5783 44.0305 19.5392 44.2496 19.5392C44.4687 19.5392 44.6722 19.5783 44.86 19.6566C45.0479 19.7348 45.2044 19.8366 45.3453 19.9696C45.4783 20.1027 45.5879 20.2592 45.6583 20.4392C45.7287 20.6192 45.7679 20.807 45.7679 21.0183V21.0261C45.7679 21.2296 45.7287 21.4253 45.6505 21.6053C45.5722 21.7853 45.4705 21.9418 45.3296 22.0748C45.1966 22.2079 45.0322 22.3174 44.8444 22.3957C44.6566 22.474 44.4531 22.5131 44.234 22.5131ZM44.2418 21.934C44.367 21.934 44.4844 21.9105 44.5861 21.8635C44.6879 21.8166 44.7818 21.754 44.86 21.6679C44.9383 21.5896 44.9931 21.4879 45.04 21.3861C45.0792 21.2766 45.1027 21.1592 45.1027 21.0418V21.034C45.1027 20.9088 45.0792 20.7914 45.04 20.6818C45.0009 20.5722 44.9383 20.4783 44.86 20.3922C44.7818 20.3061 44.6879 20.2435 44.5861 20.1966C44.4766 20.1496 44.367 20.1261 44.234 20.1261C44.1087 20.1261 43.9914 20.1496 43.8818 20.1966C43.78 20.2435 43.6861 20.3061 43.6079 20.3922C43.5296 20.4705 43.4748 20.5722 43.4279 20.674C43.3809 20.7757 43.3653 20.9009 43.3653 21.0183V21.0261C43.3653 21.1514 43.3887 21.2609 43.4279 21.3705C43.467 21.4801 43.5296 21.574 43.6079 21.6601C43.6861 21.7383 43.78 21.8088 43.8818 21.8557C43.9914 21.9105 44.1087 21.934 44.2418 21.934Z" fill="white"/>
<path d="M14.5049 68L14.1943 66.9805H12.6328L12.3223 68H11.3438L12.8555 63.6992H13.9658L15.4834 68H14.5049ZM13.9775 66.2188C13.6904 65.2949 13.5283 64.7725 13.4912 64.6514C13.4561 64.5303 13.4307 64.4346 13.415 64.3643C13.3506 64.6143 13.166 65.2324 12.8613 66.2188H13.9775ZM16.9336 65.3604H17.291C17.8496 65.3604 18.2812 65.4736 18.5859 65.7002C18.8906 65.9268 19.043 66.2471 19.043 66.6611C19.043 67.5537 18.4531 68 17.2734 68H16.0254V63.7168H18.7324V64.4668H16.9336V65.3604ZM16.9336 67.2559H17.2383C17.5449 67.2559 17.7695 67.207 17.9121 67.1094C18.0547 67.0098 18.126 66.8604 18.126 66.6611C18.126 66.4639 18.0537 66.3223 17.9092 66.2363C17.7646 66.1484 17.5166 66.1045 17.165 66.1045H16.9336V67.2559ZM21.6768 64.4111C21.335 64.4111 21.0703 64.54 20.8828 64.7979C20.6953 65.0537 20.6016 65.4111 20.6016 65.8701C20.6016 66.8252 20.96 67.3027 21.6768 67.3027C21.9775 67.3027 22.3418 67.2275 22.7695 67.0771V67.8389C22.418 67.9854 22.0254 68.0586 21.5918 68.0586C20.9688 68.0586 20.4922 67.8701 20.1621 67.4932C19.832 67.1143 19.667 66.5713 19.667 65.8643C19.667 65.4189 19.748 65.0293 19.9102 64.6953C20.0723 64.3594 20.3047 64.1025 20.6074 63.9248C20.9121 63.7451 21.2686 63.6553 21.6768 63.6553C22.0928 63.6553 22.5107 63.7559 22.9307 63.957L22.6377 64.6953C22.4775 64.6191 22.3164 64.5527 22.1543 64.4961C21.9922 64.4395 21.833 64.4111 21.6768 64.4111ZM27.5713 65.8525C27.5713 66.5615 27.3955 67.1064 27.0439 67.4873C26.6924 67.8682 26.1885 68.0586 25.5322 68.0586C24.876 68.0586 24.3721 67.8682 24.0205 67.4873C23.6689 67.1064 23.4932 66.5596 23.4932 65.8467C23.4932 65.1338 23.6689 64.5898 24.0205 64.2148C24.374 63.8379 24.8799 63.6494 25.5381 63.6494C26.1963 63.6494 26.6992 63.8389 27.0469 64.2178C27.3965 64.5967 27.5713 65.1416 27.5713 65.8525ZM24.4453 65.8525C24.4453 66.3311 24.5361 66.6914 24.7178 66.9336C24.8994 67.1758 25.1709 67.2969 25.5322 67.2969C26.2568 67.2969 26.6191 66.8154 26.6191 65.8525C26.6191 64.8877 26.2588 64.4053 25.5381 64.4053C25.1768 64.4053 24.9043 64.5273 24.7207 64.7715C24.5371 65.0137 24.4453 65.374 24.4453 65.8525ZM31.8486 68H30.9434V64.4727H29.8945L29.8477 64.8652C29.7266 65.8633 29.6191 66.5645 29.5254 66.9688C29.4336 67.3711 29.2988 67.6543 29.1211 67.8184C28.9434 67.9824 28.7031 68.0625 28.4004 68.0586C28.2363 68.0586 28.0918 68.0371 27.9668 67.9941V67.25C28.0801 67.2891 28.1865 67.3086 28.2861 67.3086C28.3896 67.3086 28.4717 67.2617 28.5322 67.168C28.5928 67.0723 28.6494 66.8965 28.7021 66.6406C28.7568 66.3828 28.8281 65.9619 28.916 65.3779C29.0059 64.792 29.082 64.2383 29.1445 63.7168H31.8486V68ZM38.4639 65.8525C38.4639 66.5557 38.2988 67.0996 37.9688 67.4844C37.6406 67.8672 37.1689 68.0586 36.5537 68.0586C35.9893 68.0586 35.5449 67.8965 35.2207 67.5723C34.8965 67.2461 34.709 66.7725 34.6582 66.1514H33.8379V68H32.9297V63.7168H33.8379V65.3955H34.6758C34.7422 64.8311 34.9355 64.3994 35.2559 64.1006C35.5781 63.7998 36.0127 63.6494 36.5596 63.6494C37.1768 63.6494 37.6484 63.8408 37.9746 64.2236C38.3008 64.6064 38.4639 65.1494 38.4639 65.8525ZM35.5898 65.8525C35.5898 66.3291 35.6719 66.6895 35.8359 66.9336C36 67.1758 36.2393 67.2969 36.5537 67.2969C37.2021 67.2969 37.5264 66.8154 37.5264 65.8525C37.5264 65.376 37.4453 65.0156 37.2832 64.7715C37.123 64.5273 36.8838 64.4053 36.5654 64.4053C36.2451 64.4053 36.002 64.5273 35.8359 64.7715C35.6719 65.0156 35.5898 65.376 35.5898 65.8525ZM41.0039 68H40.0957V64.4727H38.9326V63.7168H42.167V64.4727H41.0039V68ZM46.3359 68H45.4307V66.1514H43.7344V68H42.8262V63.7168H43.7344V65.3955H45.4307V63.7168H46.3359V68ZM51.3076 65.8525C51.3076 66.5615 51.1318 67.1064 50.7803 67.4873C50.4287 67.8682 49.9248 68.0586 49.2686 68.0586C48.6123 68.0586 48.1084 67.8682 47.7568 67.4873C47.4053 67.1064 47.2295 66.5596 47.2295 65.8467C47.2295 65.1338 47.4053 64.5898 47.7568 64.2148C48.1104 63.8379 48.6162 63.6494 49.2744 63.6494C49.9326 63.6494 50.4355 63.8389 50.7832 64.2178C51.1328 64.5967 51.3076 65.1416 51.3076 65.8525ZM48.1816 65.8525C48.1816 66.3311 48.2725 66.6914 48.4541 66.9336C48.6357 67.1758 48.9072 67.2969 49.2686 67.2969C49.9932 67.2969 50.3555 66.8154 50.3555 65.8525C50.3555 64.8877 49.9951 64.4053 49.2744 64.4053C48.9131 64.4053 48.6406 64.5273 48.457 64.7715C48.2734 65.0137 48.1816 65.374 48.1816 65.8525ZM14.3613 76H13.4561V74.1514H11.7598V76H10.8516V71.7168H11.7598V73.3955H13.4561V71.7168H14.3613V76ZM18.0674 76L17.7568 74.9805H16.1953L15.8848 76H14.9062L16.418 71.6992H17.5283L19.0459 76H18.0674ZM17.54 74.2188C17.2529 73.2949 17.0908 72.7725 17.0537 72.6514C17.0186 72.5303 16.9932 72.4346 16.9775 72.3643C16.9131 72.6143 16.7285 73.2324 16.4238 74.2188H17.54ZM21.2402 76H20.332V72.4727H19.1689V71.7168H22.4033V72.4727H21.2402V76ZM26.4404 71.7168L25.1162 74.7461C24.9502 75.127 24.7939 75.4004 24.6475 75.5664C24.5029 75.7324 24.3311 75.8564 24.1318 75.9385C23.9326 76.0186 23.6904 76.0586 23.4053 76.0586C23.1611 76.0586 22.9336 76.0293 22.7227 75.9707V75.1914C22.8945 75.2617 23.1084 75.2969 23.3643 75.2969C23.5264 75.2969 23.6572 75.2598 23.7568 75.1855C23.8564 75.1094 23.9395 74.9785 24.0059 74.793L22.5234 71.7168H23.4844L24.5391 74.1045H24.5684L24.6211 73.958L25.5059 71.7168H26.4404ZM27.8906 73.7324H28.1895C28.4688 73.7324 28.6777 73.6777 28.8164 73.5684C28.9551 73.457 29.0244 73.2959 29.0244 73.085C29.0244 72.8721 28.9658 72.7148 28.8486 72.6133C28.7334 72.5117 28.5518 72.4609 28.3037 72.4609H27.8906V73.7324ZM29.9414 73.0527C29.9414 73.5137 29.7969 73.8662 29.5078 74.1104C29.2207 74.3545 28.8115 74.4766 28.2803 74.4766H27.8906V76H26.9824V71.7168H28.3506C28.8701 71.7168 29.2646 71.8291 29.5342 72.0537C29.8057 72.2764 29.9414 72.6094 29.9414 73.0527ZM33.3721 76L33.0615 74.9805H31.5L31.1895 76H30.2109L31.7227 71.6992H32.833L34.3506 76H33.3721ZM32.8447 74.2188C32.5576 73.2949 32.3955 72.7725 32.3584 72.6514C32.3232 72.5303 32.2979 72.4346 32.2822 72.3643C32.2178 72.6143 32.0332 73.2324 31.7285 74.2188H32.8447ZM38.2822 76H37.377V72.4727H36.3281L36.2812 72.8652C36.1602 73.8633 36.0527 74.5645 35.959 74.9688C35.8672 75.3711 35.7324 75.6543 35.5547 75.8184C35.377 75.9824 35.1367 76.0625 34.834 76.0586C34.6699 76.0586 34.5254 76.0371 34.4004 75.9941V75.25C34.5137 75.2891 34.6201 75.3086 34.7197 75.3086C34.8232 75.3086 34.9053 75.2617 34.9658 75.168C35.0264 75.0723 35.083 74.8965 35.1357 74.6406C35.1904 74.3828 35.2617 73.9619 35.3496 73.3779C35.4395 72.792 35.5156 72.2383 35.5781 71.7168H38.2822V76ZM42.3809 74.6611C42.3809 75.5537 41.791 76 40.6113 76H39.3633V71.7168H40.2715V73.3604H40.6289C41.1875 73.3604 41.6191 73.4736 41.9238 73.7002C42.2285 73.9268 42.3809 74.2471 42.3809 74.6611ZM40.2715 75.2559H40.5762C40.8828 75.2559 41.1074 75.207 41.25 75.1094C41.3926 75.0098 41.4639 74.8604 41.4639 74.6611C41.4639 74.4639 41.3916 74.3223 41.2471 74.2363C41.1025 74.1484 40.8545 74.1045 40.5029 74.1045H40.2715V75.2559ZM46.7051 76H45.7998V74.1514H44.1035V76H43.1953V71.7168H44.1035V73.3955H45.7998V71.7168H46.7051V76ZM50.7188 74.6611C50.7188 75.1064 50.5703 75.4414 50.2734 75.666C49.9785 75.8887 49.541 76 48.9609 76H47.7891V71.7168H48.6973V73.3604H48.9902C49.5391 73.3604 49.9639 73.4746 50.2646 73.7031C50.5674 73.9297 50.7188 74.249 50.7188 74.6611ZM48.6973 75.2559H48.9346C49.2334 75.2559 49.4521 75.207 49.5908 75.1094C49.7295 75.0098 49.7988 74.8604 49.7988 74.6611C49.7988 74.4619 49.7314 74.3193 49.5967 74.2334C49.4639 74.1475 49.2295 74.1045 48.8936 74.1045H48.6973V75.2559ZM52.1455 76H51.2402V71.7168H52.1455V76Z" fill="#75B051"/>
</svg>
