<svg width="57" height="75" viewBox="0 0 57 75" fill="none" xmlns="http://www.w3.org/2000/svg">
<circle cx="28.128" cy="28.128" r="28.128" fill="#75B051"/>
<path d="M11.7443 33.61H13.2526V36.3168H16.0328V33.61H17.5411V40.4585H16.0328V37.711H13.2526V40.4585H11.7443V33.61V33.61Z" fill="white"/>
<path d="M21.5266 33.5577H22.9127L25.8478 40.4552H24.2742L23.6464 38.9224H20.7521L20.1243 40.4552H18.5916L21.5266 33.5577ZM23.1083 37.5935L22.1952 35.3759L21.2821 37.5935H23.1083Z" fill="white"/>
<path d="M26.9085 33.6068H28.4168V39.0856H31.8329V40.4554H26.9085V33.6068Z" fill="white"/>
<path d="M35.3144 33.5577H36.7004L39.6355 40.4552H38.0619L37.4341 38.9224H34.5398L33.912 40.4552H32.3793L35.3144 33.5577ZM36.896 37.5935L35.9829 35.3759L35.0698 37.5935H36.896Z" fill="white"/>
<path d="M40.6962 33.6068H42.2045V39.0856H45.6206V40.4554H40.6962V33.6068Z" fill="white"/>
<path d="M33.9523 24.182C34.4252 23.3422 34.8328 22.4617 35.3791 21.679C36.2352 20.456 37.2135 20.1462 38.6485 20.5865C39.3415 20.7985 40.0345 21.0757 40.646 21.4588C42.4559 22.5921 44.2985 23.5297 46.6873 23.1465C46.1656 24.0515 45.7334 24.8179 45.2687 25.568C45.2035 25.674 44.9671 25.731 44.8121 25.7229C43.3201 25.625 41.926 25.9593 40.5318 26.5056C38.8034 27.1823 37.0423 27.8019 35.1508 27.8671C33.1125 27.9405 31.963 27.1089 31.3923 25.144C30.7889 23.0895 30.7808 20.9615 30.6911 18.8499C30.6666 18.2466 30.6911 17.6351 30.6911 16.9421C30.1856 18.9314 29.7372 20.8229 29.2236 22.7063C27.8538 27.6878 23.3452 29.245 19.5214 28.9107C19.3665 28.8944 19.2198 28.8455 19.1056 28.821C20.2634 28.2829 21.4782 27.8182 22.6033 27.1904C26.4271 25.0625 28.767 21.8665 29.4926 17.4965C29.8024 15.6294 30.259 13.7868 30.6585 11.9198C31.221 11.9769 31.3189 12.3845 31.3596 12.727C31.5146 13.901 31.6287 15.0832 31.7184 16.2654C31.8651 18.2792 31.9385 20.293 32.126 22.2986C32.1913 23.0079 32.4603 23.7172 32.7212 24.3939C32.9903 25.0788 33.512 25.462 34.311 25.5272C35.8846 25.6577 37.4418 25.674 38.942 25.144C39.5045 24.9402 40.0263 24.6141 40.7112 24.2798C39.5127 23.6031 38.4365 23.1547 37.2543 22.9672C35.909 22.747 35.0122 23.5216 34.1072 24.3043C34.0501 24.2553 34.0012 24.2146 33.9523 24.182Z" fill="white"/>
<path d="M19.2523 8.79724C19.7333 9.61254 20.247 10.4686 20.7443 11.3328C20.7932 11.4225 20.8258 11.5693 20.7851 11.6508C20.0268 13.2814 20.2796 14.9772 20.3937 16.6731C20.5405 18.7684 20.6709 20.8556 20.8014 22.9509C20.8747 24.0026 20.5894 24.9647 19.9208 25.7719C19.3012 26.5138 18.6734 27.2639 17.9233 27.8672C16.3335 29.1472 14.5154 29.2532 12.6565 28.5276C10.6019 27.7286 9.71324 25.6985 10.3655 23.3749C10.6508 22.3557 11.1645 21.4507 11.8983 20.6599C11.8412 20.8393 11.776 21.0105 11.7189 21.198C11.5721 21.6872 11.4009 22.1764 11.3031 22.6819C10.8547 24.8832 11.4988 25.8942 13.6756 26.367C15.3878 26.7421 17.0102 26.4975 18.5267 25.5843C19.1137 25.2338 19.4969 24.7283 19.505 24.0516C19.5132 22.3965 19.6029 20.7251 19.4154 19.0864C19.1137 16.3959 18.6245 13.7298 18.225 11.0556C18.2005 10.8681 18.1924 10.6398 18.2739 10.4849C18.6082 9.85714 18.9669 9.27012 19.2523 8.79724Z" fill="white"/>
<path d="M20.9652 13.9825C23.9573 14.9364 26.7294 18.1487 26.175 22.2497C26.0364 21.8747 25.9222 21.6219 25.8407 21.3529C25.2781 19.5674 24.259 18.2547 22.3593 17.7411C21.5848 17.5291 21.0222 17.0236 20.9733 16.1594C20.9244 15.4419 20.9652 14.7326 20.9652 13.9825Z" fill="white"/>
<path d="M25.8799 73.7155H24.8427L23.8467 72.0953L22.8506 73.7155H21.8779L23.2988 71.5065L21.9687 69.4323H22.9707L23.8935 70.9733L24.7988 69.4323H25.7773L24.4326 71.5563L25.8799 73.7155ZM29.041 73.7155L28.7304 72.6959H27.1689L26.8584 73.7155H25.8799L27.3916 69.4147H28.5019L30.0195 73.7155H29.041ZM28.5136 71.9342C28.2265 71.0104 28.0644 70.4879 28.0273 70.3668C27.9922 70.2457 27.9668 70.15 27.9511 70.0797C27.8867 70.3297 27.7021 70.9479 27.3974 71.9342H28.5136ZM33.9511 73.7155H33.0459V70.1881H31.997L31.9502 70.5807C31.8291 71.5787 31.7217 72.2799 31.6279 72.6842C31.5361 73.0865 31.4013 73.3698 31.2236 73.5338C31.0459 73.6979 30.8056 73.778 30.5029 73.774C30.3388 73.774 30.1943 73.7526 30.0693 73.7096V72.9655C30.1826 73.0045 30.289 73.024 30.3886 73.024C30.4922 73.024 30.5742 72.9772 30.6347 72.8834C30.6953 72.7877 30.7519 72.6119 30.8047 72.3561C30.8593 72.0983 30.9306 71.6774 31.0185 71.0934C31.1084 70.5074 31.1845 69.9537 31.247 69.4323H33.9511V73.7155ZM37.6543 73.7155L37.3437 72.6959H35.7822L35.4717 73.7155H34.4931L36.0049 69.4147H37.1152L38.6328 73.7155H37.6543ZM37.1269 71.9342C36.8398 71.0104 36.6777 70.4879 36.6406 70.3668C36.6054 70.2457 36.5801 70.15 36.5644 70.0797C36.5 70.3297 36.3154 70.9479 36.0107 71.9342H37.1269ZM42.5644 73.7155H41.6592V70.1881H40.6103L40.5634 70.5807C40.4424 71.5787 40.3349 72.2799 40.2412 72.6842C40.1494 73.0865 40.0146 73.3698 39.8369 73.5338C39.6592 73.6979 39.4189 73.778 39.1162 73.774C38.9521 73.774 38.8076 73.7526 38.6826 73.7096V72.9655C38.7959 73.0045 38.9023 73.024 39.0019 73.024C39.1054 73.024 39.1875 72.9772 39.248 72.8834C39.3086 72.7877 39.3652 72.6119 39.4179 72.3561C39.4726 72.0983 39.5439 71.6774 39.6318 71.0934C39.7217 70.5074 39.7978 69.9537 39.8603 69.4323H42.5644V73.7155Z" fill="#75B051"/>
</svg>
