<svg width="57" height="77" viewBox="0 0 57 77" fill="none" xmlns="http://www.w3.org/2000/svg">
<ellipse cx="28.3699" cy="27.8239" rx="28.3699" ry="27.8239" fill="#75B051"/>
<path d="M22.6561 24.8158C22.2367 24.8158 21.8666 24.7432 21.5377 24.6061C21.2088 24.469 20.9539 24.2996 20.7483 24.098C20.4687 23.8238 20.2631 23.4932 20.1151 23.106C19.9671 22.7189 19.8931 22.227 19.8931 21.6382V21.6302C19.8931 20.5333 20.1233 19.6704 20.5838 19.0413C21.0443 18.4123 21.7515 18.0171 22.7136 17.8639L24.7036 17.5332L24.9421 18.88L22.9768 19.1784C22.4669 19.2591 22.0722 19.4123 21.8009 19.6301C21.5295 19.8478 21.3568 20.1301 21.291 20.485C21.5048 20.3156 21.7597 20.1785 22.064 20.0736C22.3682 19.9688 22.7054 19.9123 23.0672 19.9123C23.4537 19.9123 23.7991 19.9688 24.1033 20.0817C24.4076 20.1866 24.6625 20.3478 24.8599 20.5495C25.0572 20.7511 25.2217 20.993 25.3204 21.2753C25.4273 21.5576 25.4766 21.864 25.4766 22.2108V22.2189C25.4766 22.5899 25.4108 22.9286 25.271 23.2431C25.1395 23.5577 24.9421 23.8319 24.6954 24.0658C24.4487 24.2996 24.1444 24.4771 23.7991 24.6142C23.4619 24.7513 23.0754 24.8158 22.6561 24.8158ZM22.6807 23.5819C22.8781 23.5819 23.059 23.5496 23.2235 23.477C23.3879 23.4044 23.5277 23.3157 23.6511 23.1948C23.7744 23.0738 23.8649 22.9367 23.9306 22.7673C23.9964 22.598 24.0293 22.4205 24.0293 22.227V22.2189C24.0293 22.0415 24.0047 21.8802 23.9471 21.7269C23.8895 21.5737 23.8073 21.4447 23.7004 21.3318C23.5935 21.2189 23.4619 21.1301 23.2975 21.0737C23.1412 21.0172 22.9603 20.985 22.7547 20.985C22.5327 20.985 22.3354 21.0172 22.1627 21.0898C21.99 21.1624 21.8502 21.2592 21.7351 21.3721C21.6199 21.4931 21.5295 21.6302 21.4719 21.7915C21.4144 21.9528 21.3815 22.1221 21.3815 22.2996V22.3076C21.3815 22.477 21.4144 22.6463 21.4719 22.7996C21.5377 22.9528 21.6199 23.0899 21.7351 23.2028C21.8502 23.3157 21.9818 23.4125 22.1462 23.477C22.3025 23.5496 22.4834 23.5819 22.6807 23.5819Z" fill="white"/>
<path d="M29.0945 24.8156C28.6998 24.8156 28.3297 24.7511 27.9926 24.622C27.6554 24.493 27.3594 24.3075 27.1127 24.0736C26.866 23.8317 26.6769 23.5494 26.5371 23.2268C26.3973 22.9042 26.3315 22.5413 26.3315 22.138V22.1219C26.3315 21.7509 26.3973 21.4041 26.5206 21.0735C26.6522 20.7428 26.8249 20.4605 27.0552 20.2105C27.2854 19.9686 27.5568 19.775 27.8775 19.6299C28.1982 19.4847 28.5518 19.4202 28.9382 19.4202C29.3823 19.4202 29.7606 19.5008 30.0813 19.654C30.402 19.8073 30.6733 20.017 30.8871 20.275C31.1009 20.5331 31.2572 20.8396 31.3641 21.1783C31.471 21.517 31.5203 21.8719 31.5203 22.2348C31.5203 22.2913 31.5203 22.3558 31.5121 22.4203C31.5121 22.4848 31.5039 22.5493 31.4956 22.6219H27.8117C27.8857 22.9607 28.0337 23.2107 28.264 23.38C28.4942 23.5494 28.7738 23.6381 29.1109 23.6381C29.3576 23.6381 29.5879 23.5978 29.7852 23.5171C29.9826 23.4284 30.1882 23.2994 30.3937 23.1058L31.249 23.8559C31.0023 24.1623 30.698 24.3962 30.3444 24.5656C29.9908 24.7269 29.5714 24.8156 29.0945 24.8156ZM30.0566 21.6945C30.0073 21.3638 29.8921 21.0977 29.703 20.896C29.5139 20.6944 29.259 20.5896 28.9465 20.5896C28.634 20.5896 28.3791 20.6864 28.1817 20.888C27.9844 21.0896 27.861 21.3557 27.8035 21.6945H30.0566V21.6945Z" fill="white"/>
<path d="M32.8276 23.0737C33.099 23.2592 33.3703 23.4044 33.6499 23.4931C33.9295 23.5898 34.2173 23.6302 34.5051 23.6302C35.1383 23.6302 35.4508 23.4527 35.4508 23.0979V23.0898C35.4508 22.9447 35.3768 22.8237 35.237 22.743C35.089 22.6624 34.8752 22.6221 34.5791 22.6301H33.4526V21.5736H34.5709C34.8341 21.5736 35.0232 21.5333 35.1465 21.4526C35.2699 21.372 35.3274 21.251 35.3274 21.0897V21.0817C35.3274 20.9365 35.2534 20.8155 35.1136 20.7268C34.9656 20.6381 34.76 20.5978 34.4887 20.5978C34.1844 20.5978 33.9131 20.6462 33.6664 20.7349C33.4197 20.8317 33.1812 20.9688 32.9427 21.1462L32.1533 20.2429C32.4658 19.9768 32.8112 19.7752 33.1976 19.63C33.5841 19.4848 34.0446 19.4122 34.5874 19.4122C34.9163 19.4122 35.2123 19.4445 35.4837 19.5171C35.755 19.5897 35.9853 19.6864 36.1744 19.8235C36.3636 19.9606 36.5116 20.1139 36.6185 20.2913C36.7254 20.4687 36.7747 20.6704 36.7747 20.8881V20.8962C36.7747 21.1865 36.7007 21.4204 36.5445 21.6059C36.3965 21.7914 36.1827 21.9365 35.9195 22.0495C36.2155 22.1382 36.454 22.2833 36.6349 22.4688C36.8158 22.6543 36.9063 22.9205 36.9063 23.2511V23.2592C36.9063 23.4689 36.8569 23.6705 36.75 23.856C36.6431 24.0415 36.4869 24.2108 36.2896 24.3479C36.084 24.4931 35.8373 24.598 35.5412 24.6786C35.2452 24.7593 34.9081 24.7996 34.5216 24.7996C34.0117 24.7996 33.5595 24.7351 33.1812 24.606C32.8029 24.477 32.4411 24.2834 32.0875 24.0253L32.8276 23.0737Z" fill="white"/>
<path d="M17.6726 29.5333H22.6393V30.8882H19.1938V36.3078H17.6726V29.5333V29.5333Z" fill="white"/>
<path d="M23.7736 29.5333H25.41L27.2273 32.3964L29.0446 29.5333H30.681V36.3078H29.1679V31.8883L27.2273 34.7836H27.1862L25.2619 31.9205V36.3159H23.7736V29.5333V29.5333Z" fill="white"/>
<path d="M35.6973 36.4289C35.1628 36.4289 34.6777 36.3402 34.2254 36.1547C33.7731 35.9692 33.3949 35.7192 33.0659 35.4127C32.737 35.1063 32.4903 34.7353 32.3094 34.3079C32.1285 33.8885 32.038 33.4288 32.038 32.9449V32.9288C32.038 32.4449 32.1285 31.9932 32.3176 31.5658C32.4985 31.1384 32.7535 30.7754 33.0824 30.4528C33.4113 30.1302 33.7978 29.8802 34.2501 29.6947C34.7023 29.5092 35.1957 29.4205 35.722 29.4205C36.2483 29.4205 36.7417 29.5092 37.194 29.6947C37.6462 29.8802 38.0245 30.1302 38.3534 30.4367C38.6823 30.7432 38.929 31.1142 39.11 31.5416C39.2909 31.969 39.3813 32.4207 39.3813 32.9046V32.9207C39.3813 33.4046 39.2909 33.8562 39.1017 34.2837C38.9208 34.703 38.6659 35.074 38.337 35.3966C38.008 35.7111 37.6216 35.9692 37.1693 36.1547C36.717 36.3402 36.2318 36.4289 35.6973 36.4289ZM35.7138 35.0579C36.018 35.0579 36.2976 35.0014 36.5526 34.8885C36.8075 34.7756 37.0295 34.6305 37.2104 34.4369C37.3913 34.2433 37.5311 34.0175 37.638 33.7675C37.7367 33.5175 37.7942 33.2433 37.7942 32.953V32.9368C37.7942 32.6465 37.7449 32.3723 37.638 32.1142C37.5393 31.8561 37.3913 31.6303 37.2022 31.4368C37.013 31.2432 36.791 31.09 36.5361 30.9771C36.2812 30.8641 36.0016 30.8077 35.6973 30.8077C35.3849 30.8077 35.1053 30.8641 34.8504 30.9771C34.5954 31.0819 34.3816 31.2351 34.2007 31.4287C34.0198 31.6222 33.88 31.8481 33.7731 32.0981C33.6744 32.3562 33.6169 32.6223 33.6169 32.9207V32.9368C33.6169 33.2272 33.6662 33.5014 33.7731 33.7594C33.88 34.0175 34.0198 34.2433 34.209 34.4369C34.3981 34.6305 34.6201 34.7837 34.8668 34.8966C35.1135 35.0095 35.4095 35.0579 35.7138 35.0579Z" fill="white"/>
<path d="M17.1036 73.0454H17.461C18.0196 73.0454 18.4512 73.1587 18.7559 73.3853C19.0606 73.6118 19.2129 73.9321 19.2129 74.3462C19.2129 75.2388 18.6231 75.6851 17.4434 75.6851H16.1954V71.4019H18.9024V72.1519H17.1036V73.0454ZM17.1036 74.9409H17.4083C17.7149 74.9409 17.9395 74.8921 18.0821 74.7944C18.2247 74.6948 18.296 74.5454 18.296 74.3462C18.296 74.1489 18.2237 74.0073 18.0792 73.9214C17.9346 73.8335 17.6866 73.7896 17.335 73.7896H17.1036V74.9409ZM22.4942 75.6851H20.0274V71.4019H22.4942V72.146H20.9356V73.0864H22.3858V73.8306H20.9356V74.9351H22.4942V75.6851ZM26.3497 72.4038C26.3497 72.6792 26.252 72.9067 26.0567 73.0864C25.8614 73.2661 25.5967 73.3804 25.2628 73.4292V73.4468C25.6553 73.4858 25.9561 73.5942 26.1651 73.772C26.376 73.9497 26.4815 74.1812 26.4815 74.4663C26.4815 74.8608 26.3213 75.1724 26.001 75.4009C25.6827 75.6294 25.2413 75.7437 24.6768 75.7437C24.0479 75.7437 23.543 75.6665 23.1622 75.5122V74.7505C23.3458 74.8384 23.5606 74.9077 23.8067 74.9585C24.0547 75.0073 24.2862 75.0317 24.501 75.0317C25.2217 75.0317 25.5821 74.8218 25.5821 74.4019C25.5821 74.2124 25.4659 74.0669 25.2335 73.9653C25.003 73.8638 24.6612 73.813 24.2081 73.813H23.8067V73.104H24.167C24.6202 73.104 24.9503 73.061 25.1573 72.9751C25.3643 72.8892 25.4678 72.7466 25.4678 72.5474C25.4678 72.4009 25.4024 72.2847 25.2715 72.1987C25.1426 72.1108 24.9483 72.0669 24.6885 72.0669C24.2862 72.0669 23.8975 72.1831 23.5225 72.4155L23.127 71.8091C23.3712 71.647 23.6299 71.5288 23.9034 71.4546C24.1768 71.3784 24.4805 71.3403 24.8145 71.3403C25.2813 71.3403 25.6534 71.438 25.9307 71.6333C26.21 71.8286 26.3497 72.0854 26.3497 72.4038ZM31.5469 71.4019V72.1519H29.7481V75.6851H28.8399V71.4019H31.5469ZM34.0225 75.6851L32.9913 72.3247H32.9649C33.002 73.0083 33.0206 73.4644 33.0206 73.6929V75.6851H32.209V71.4019H33.4454L34.459 74.6772H34.4766L35.5518 71.4019H36.7881V75.6851H35.9415V73.6577C35.9415 73.562 35.9424 73.4517 35.9444 73.3267C35.9483 73.2017 35.962 72.8696 35.9854 72.3306H35.959L34.8545 75.6851H34.0225ZM41.7569 73.5376C41.7569 74.2466 41.5811 74.7915 41.2295 75.1724C40.878 75.5532 40.3741 75.7437 39.7178 75.7437C39.0616 75.7437 38.5577 75.5532 38.2061 75.1724C37.8545 74.7915 37.6788 74.2446 37.6788 73.5317C37.6788 72.8188 37.8545 72.2749 38.2061 71.8999C38.5596 71.5229 39.0655 71.3345 39.7237 71.3345C40.3819 71.3345 40.8848 71.5239 41.2325 71.9028C41.5821 72.2817 41.7569 72.8267 41.7569 73.5376ZM38.6309 73.5376C38.6309 74.0161 38.7217 74.3765 38.9034 74.6187C39.085 74.8608 39.3565 74.9819 39.7178 74.9819C40.4424 74.9819 40.8047 74.5005 40.8047 73.5376C40.8047 72.5728 40.4444 72.0903 39.7237 72.0903C39.3624 72.0903 39.0899 72.2124 38.9063 72.4565C38.7227 72.6987 38.6309 73.0591 38.6309 73.5376Z" fill="#75B051"/>
</svg>
