<svg width="96" height="32" viewBox="0 0 96 32" fill="none" xmlns="http://www.w3.org/2000/svg">
<path d="M21.453 29.9225C21.4275 29.9225 21.3135 29.9225 21.1138 29.9225L20.8524 29.9326V29.8696C21.0039 29.8696 21.1084 29.8319 21.1634 29.755C21.2076 29.6921 21.2304 29.5863 21.2304 29.4365V28.166C21.2304 28.0086 21.1781 27.8827 21.0722 27.787C20.9663 27.6913 20.8309 27.6434 20.6647 27.6434C20.3805 27.6434 20.1218 27.7568 19.8885 27.9834V29.4365C19.8885 29.5548 19.9046 29.6505 19.9381 29.7236C19.9823 29.8243 20.0681 29.8747 20.1942 29.8747H20.2773V29.9326L19.6767 29.9225C19.6472 29.9225 19.5333 29.9225 19.3375 29.9225L19.0761 29.9326L19.0708 29.8696C19.2142 29.8696 19.3107 29.8444 19.3617 29.7941C19.4113 29.7437 19.4408 29.6518 19.4488 29.5196V29.4365V28.1395C19.4488 27.9305 19.3871 27.826 19.2625 27.826C19.2075 27.826 19.1365 27.8361 19.048 27.8575V27.7945C19.3898 27.6661 19.67 27.5477 19.8885 27.4395V27.9255C20.1633 27.6157 20.4891 27.4609 20.8685 27.4609C21.1098 27.4609 21.3028 27.5238 21.4503 27.6485C21.5964 27.7731 21.6701 27.9469 21.6701 28.1698V29.4327C21.6701 29.575 21.6835 29.6719 21.709 29.7248C21.7532 29.8117 21.8404 29.8596 21.9704 29.8659L22.0535 29.8709V29.9338C22.0012 29.9338 21.8886 29.9301 21.7144 29.9238H21.453V29.9225Z" fill="black"/>
<path d="M25.2199 28.5639C25.0979 28.5916 24.9746 28.6281 24.8526 28.6734C24.5966 28.7704 24.4303 28.8472 24.3512 28.9039C24.1837 29.0185 24.1005 29.1708 24.1005 29.3584C24.1005 29.6858 24.2547 29.8495 24.563 29.8495C24.7708 29.8495 24.9893 29.7374 25.2199 29.5146V28.5639ZM25.3432 30.027C25.295 29.9603 25.2561 29.8671 25.2266 29.745C25.2186 29.7173 25.2078 29.6682 25.1931 29.5989C24.9076 29.8671 24.6086 30.0019 24.2976 30.0019C23.9973 30.0019 23.7949 29.8785 23.6917 29.6304C23.6541 29.5435 23.6354 29.4592 23.6354 29.3786C23.6354 29.2073 23.7453 29.06 23.9638 28.9328C24.0831 28.8661 24.2788 28.7918 24.5537 28.7074L25.2213 28.5085V28.0942C25.2213 27.9343 25.1864 27.8034 25.1154 27.7014C25.0336 27.583 24.9116 27.5238 24.748 27.5238C24.6287 27.5238 24.5175 27.5553 24.4142 27.6183C24.2949 27.6875 24.2359 27.7782 24.2359 27.8865C24.2359 27.9532 24.252 28.0376 24.2855 28.1396L23.8847 28.2604C23.874 28.2327 23.8646 28.1887 23.8566 28.1295C23.8566 27.9381 23.9973 27.7719 24.2788 27.6334C24.5242 27.5112 24.7628 27.4508 24.9974 27.4508C25.1904 27.4508 25.3446 27.505 25.4626 27.6132C25.5792 27.7215 25.6382 27.8663 25.6382 28.0476V29.4113C25.6382 29.6065 25.7146 29.7034 25.8661 29.7034C25.9103 29.7034 25.9733 29.6858 26.0551 29.6518L26.0712 29.6934L25.3432 30.027Z" fill="black"/>
<path d="M28.944 29.9074L28.8716 29.9968L28.7711 30.0019C28.6638 30.0094 28.5499 29.988 28.4319 29.9389C28.0793 29.8004 27.9037 29.5586 27.9037 29.2162V27.6233H27.3755V27.5402H27.6262C27.7603 27.5364 27.8957 27.4559 28.0324 27.2985C28.1544 27.1511 28.2268 27.0089 28.2496 26.8729L28.2777 26.6991H28.3394V27.5402H29.196L29.1679 27.6233H28.3381V29.2388C28.3381 29.3119 28.3434 29.366 28.3541 29.4013C28.3729 29.5133 28.4279 29.6065 28.5177 29.6808C28.6089 29.7563 28.7134 29.7929 28.8327 29.7929C28.9145 29.7929 28.9882 29.7752 29.0553 29.74C29.0807 29.7261 29.1464 29.6846 29.2496 29.6141C29.1169 29.7223 29.015 29.8193 28.944 29.9074Z" fill="black"/>
<path d="M32.9013 30.022C32.8155 29.9351 32.774 29.7991 32.774 29.614L32.6574 29.6921C32.5501 29.7651 32.4147 29.8457 32.2512 29.9326C32.1252 29.9817 31.9764 30.0056 31.8061 30.0056C31.5608 30.0056 31.3651 29.9389 31.2189 29.8042C31.0728 29.6694 30.9991 29.4881 30.9991 29.2577V28.1395C30.9991 27.9305 30.9347 27.826 30.8047 27.826C30.7524 27.826 30.6827 27.8361 30.5929 27.8575V27.7945C30.8597 27.7001 31.1398 27.5817 31.4334 27.4395V29.264C31.4334 29.4491 31.483 29.5964 31.5836 29.7085C31.6841 29.8205 31.8302 29.8759 32.0233 29.8759C32.3169 29.8759 32.5635 29.7576 32.7633 29.5208V28.0829C32.7633 27.9116 32.6989 27.8273 32.5689 27.8273C32.5166 27.8273 32.4469 27.8373 32.3571 27.8588V27.7945L32.7807 27.6359C32.9 27.5893 33.0381 27.5238 33.1976 27.4395V29.2791C33.1976 29.5624 33.274 29.7034 33.4255 29.7034C33.4778 29.7034 33.5408 29.6858 33.6145 29.6518L33.6252 29.6883L32.9013 30.022Z" fill="black"/>
<path d="M36.6603 27.7216C36.5208 27.7216 36.3854 27.7745 36.2541 27.8815C36.1227 27.9873 36.057 28.1069 36.057 28.2391V29.5008C36.057 29.7438 36.1844 29.8659 36.4404 29.8659V29.9339C36.3921 29.9339 36.2795 29.9302 36.1012 29.9239H35.8345C35.809 29.9239 35.6951 29.9239 35.4953 29.9239L35.2339 29.9339V29.8659C35.4899 29.8659 35.6173 29.7199 35.6173 29.4265V28.1409C35.6173 27.9319 35.5556 27.8274 35.431 27.8274C35.376 27.8274 35.305 27.8374 35.2165 27.8588L35.2057 27.7908C35.5154 27.6863 35.7996 27.5692 36.057 27.4408V28.1308L36.1508 27.9369C36.3546 27.6196 36.5865 27.4609 36.8479 27.4609C36.9337 27.4609 37.0115 27.4735 37.0865 27.4975V27.9885C37.0061 27.811 36.8627 27.7216 36.6603 27.7216Z" fill="black"/>
<path d="M40.4433 28.4908C40.4433 28.244 40.3937 28.0312 40.2932 27.8537C40.1672 27.6346 39.9835 27.5238 39.7422 27.5238C39.5424 27.5238 39.3655 27.6283 39.214 27.8373C39.0773 28.0186 39.0008 28.21 38.9861 28.4127L38.9754 28.5588H40.4447V28.4908H40.4433ZM40.9045 28.6469H38.974V28.72L38.9794 28.7779C39.0089 29.1015 39.1094 29.3684 39.2797 29.5775C39.4768 29.8217 39.7382 29.9439 40.0639 29.9439C40.2757 29.9439 40.5171 29.8696 40.7878 29.7197L40.8106 29.7663C40.5479 29.9262 40.253 30.0068 39.9258 30.0068C39.5062 30.0068 39.1657 29.886 38.9016 29.6429C38.6389 29.4012 38.5062 29.0826 38.5062 28.6885C38.5062 28.4027 38.5839 28.1534 38.7394 27.9406C38.907 27.7101 39.1322 27.5666 39.4178 27.5062C39.5518 27.4785 39.6832 27.4646 39.8132 27.4646C40.1658 27.4646 40.438 27.5729 40.631 27.7882C40.8133 27.9909 40.9031 28.2604 40.9031 28.5978V28.6469H40.9045Z" fill="black"/>
<path d="M45.6071 29.9074L45.5347 29.9968L45.4342 30.0019C45.327 30.0094 45.213 29.988 45.095 29.9389C44.7425 29.8004 44.5669 29.5586 44.5669 29.2162V27.6233H44.0387V27.5402H44.2894C44.4234 27.5364 44.5588 27.4559 44.6956 27.2985C44.8176 27.1511 44.8899 27.0089 44.9127 26.8729L44.9409 26.6991H45.0026V27.5402H45.8592L45.831 27.6233H45.0012V29.2388C45.0012 29.3119 45.0066 29.366 45.0173 29.4013C45.0361 29.5133 45.091 29.6065 45.1808 29.6808C45.272 29.7563 45.3766 29.7929 45.4959 29.7929C45.5776 29.7929 45.6514 29.7752 45.7184 29.74C45.7439 29.7261 45.8096 29.6846 45.9128 29.6141C45.7801 29.7223 45.6782 29.8193 45.6071 29.9074Z" fill="black"/>
<path d="M48.5349 27.5289C48.2681 27.5289 48.0523 27.6334 47.8888 27.8412C47.74 28.0288 47.6662 28.2529 47.6662 28.5148C47.6662 28.8523 47.748 29.1583 47.9115 29.4327C48.1113 29.7664 48.3794 29.9339 48.7132 29.9339C49.0068 29.9339 49.2253 29.8105 49.3701 29.5637C49.4853 29.3685 49.543 29.1217 49.543 28.8233C49.543 28.3713 49.3982 28.0162 49.1087 27.7593C48.9384 27.6057 48.7467 27.5289 48.5349 27.5289ZM48.614 30.0057C48.2172 30.0057 47.8888 29.886 47.6287 29.6481C47.3686 29.4088 47.2386 29.1041 47.2386 28.7301C47.2386 28.3436 47.3686 28.0363 47.6287 27.8097C47.8888 27.5831 48.2266 27.4697 48.6421 27.4697C49.0322 27.4697 49.3553 27.5818 49.6127 27.8047C49.8701 28.0275 50.0001 28.3222 50.0001 28.6886C50.0001 29.0689 49.8701 29.3824 49.61 29.6317C49.35 29.881 49.0175 30.0057 48.614 30.0057Z" fill="black"/>
<path d="M54.7832 27.5918C54.5392 27.5918 54.3046 27.7014 54.0794 27.9217V29.7613C54.2282 29.8734 54.4146 29.9288 54.6411 29.9288C54.9749 29.9288 55.2323 29.7865 55.4146 29.5007C55.5701 29.2602 55.6479 28.9744 55.6479 28.6432C55.6479 28.3574 55.5809 28.1194 55.4481 27.9267C55.2926 27.7026 55.0715 27.5918 54.7832 27.5918ZM54.7336 29.9905C54.5272 29.9905 54.3073 29.9401 54.0794 29.8394V30.6478C54.0794 30.8014 54.1022 30.9084 54.1465 30.9676C54.1987 31.0482 54.302 31.0885 54.4575 31.0885V31.1351L53.8569 31.1137C53.8274 31.1137 53.7135 31.1175 53.5177 31.1237L53.2563 31.1338V31.0822C53.4051 31.0822 53.507 31.0457 53.562 30.9727C53.6022 30.9172 53.6263 30.814 53.6344 30.6642V30.5496V28.1395C53.6344 27.9305 53.574 27.826 53.4521 27.826C53.4212 27.826 53.3515 27.8348 53.2443 27.8525V27.7945C53.5097 27.7001 53.7872 27.5817 54.0794 27.4395V27.8625C54.3087 27.5943 54.5956 27.4596 54.9428 27.4596C55.3047 27.4596 55.5862 27.5704 55.79 27.792C55.9938 28.0136 56.0943 28.2969 56.0943 28.6419C56.0943 29.0222 55.9683 29.3395 55.7163 29.5939C55.4602 29.8583 55.1331 29.9905 54.7336 29.9905Z" fill="black"/>
<path d="M59.7058 28.4908C59.7058 28.244 59.6562 28.0312 59.5556 27.8537C59.4296 27.6346 59.246 27.5238 59.0047 27.5238C58.8049 27.5238 58.628 27.6283 58.4765 27.8373C58.3398 28.0186 58.2633 28.21 58.2486 28.4127L58.2379 28.5588H59.7071V28.4908H59.7058ZM60.1669 28.6469H58.2365V28.72L58.2419 28.7779C58.2714 29.1015 58.3719 29.3684 58.5422 29.5775C58.7392 29.8217 59.0006 29.9439 59.3264 29.9439C59.5382 29.9439 59.7795 29.8696 60.0503 29.7197L60.0731 29.7663C59.8103 29.9262 59.5154 30.0068 59.1883 30.0068C58.7687 30.0068 58.4282 29.886 58.1641 29.6429C57.9014 29.4012 57.7687 29.0826 57.7687 28.6885C57.7687 28.4027 57.8464 28.1534 58.0019 27.9406C58.1695 27.7101 58.3947 27.5666 58.6803 27.5062C58.8143 27.4785 58.9457 27.4646 59.0757 27.4646C59.4283 27.4646 59.7004 27.5729 59.8935 27.7882C60.0758 27.9909 60.1656 28.2604 60.1656 28.5978V28.6469H60.1669Z" fill="black"/>
<path d="M63.1229 27.5289C62.8561 27.5289 62.6403 27.6334 62.4767 27.8412C62.3279 28.0288 62.2542 28.2529 62.2542 28.5148C62.2542 28.8523 62.336 29.1583 62.4995 29.4327C62.6993 29.7664 62.9674 29.9339 63.3012 29.9339C63.5948 29.9339 63.8133 29.8105 63.9581 29.5637C64.0733 29.3685 64.131 29.1217 64.131 28.8233C64.131 28.3713 63.9862 28.0162 63.6966 27.7593C63.5251 27.6057 63.3347 27.5289 63.1229 27.5289ZM63.2006 30.0057C62.8038 30.0057 62.4754 29.886 62.2153 29.6481C61.9552 29.4088 61.8252 29.1041 61.8252 28.7301C61.8252 28.3436 61.9552 28.0363 62.2153 27.8097C62.4754 27.5831 62.8132 27.4697 63.2288 27.4697C63.6189 27.4697 63.942 27.5818 64.1994 27.8047C64.4568 28.0275 64.5868 28.3222 64.5868 28.6886C64.5868 29.0689 64.4568 29.3824 64.1967 29.6317C63.938 29.881 63.6055 30.0057 63.2006 30.0057Z" fill="black"/>
<path d="M67.7572 27.5918C67.5132 27.5918 67.2786 27.7014 67.0534 27.9217V29.7613C67.2022 29.8734 67.3886 29.9288 67.6151 29.9288C67.9489 29.9288 68.2063 29.7865 68.3886 29.5007C68.5441 29.2602 68.6218 28.9744 68.6218 28.6432C68.6218 28.3574 68.5548 28.1194 68.4221 27.9267C68.2666 27.7026 68.0454 27.5918 67.7572 27.5918ZM67.7076 29.9905C67.5012 29.9905 67.2813 29.9401 67.0534 29.8394V30.6478C67.0534 30.8014 67.0762 30.9084 67.1204 30.9676C67.1727 31.0482 67.2759 31.0885 67.4314 31.0885V31.1351L66.8309 31.1137C66.8014 31.1137 66.6875 31.1175 66.4917 31.1237L66.2303 31.1338V31.0822C66.3791 31.0822 66.481 31.0457 66.536 30.9727C66.5762 30.9172 66.6003 30.814 66.6084 30.6642V30.5496V28.1395C66.6084 27.9305 66.548 27.826 66.426 27.826C66.3952 27.826 66.3255 27.8348 66.2183 27.8525V27.7945C66.4837 27.7001 66.7612 27.5817 67.0534 27.4395V27.8625C67.2826 27.5943 67.5695 27.4596 67.9167 27.4596C68.2787 27.4596 68.5602 27.5704 68.7639 27.792C68.9677 28.0136 69.0682 28.2969 69.0682 28.6419C69.0682 29.0222 68.9422 29.3395 68.6902 29.5939C68.4342 29.8583 68.1071 29.9905 67.7076 29.9905Z" fill="black"/>
<path d="M71.0938 29.3383V26.4259C71.0938 26.2206 71.0254 26.1174 70.8874 26.1174C70.8552 26.1174 70.7935 26.1262 70.7024 26.1438L70.6809 26.0808C70.9571 25.9864 71.2426 25.8718 71.5375 25.7358V29.4831C71.5375 29.7412 71.6636 29.8697 71.9156 29.8697V29.9276L71.2426 29.9125C71.0871 29.9087 70.9088 29.9137 70.7091 29.9276L70.7144 29.8646C70.9517 29.8646 71.0777 29.7513 71.0925 29.5259V29.3383H71.0938Z" fill="black"/>
<path d="M75.4895 28.4908C75.4895 28.244 75.4399 28.0312 75.3394 27.8537C75.2134 27.6346 75.0297 27.5238 74.7884 27.5238C74.5887 27.5238 74.4117 27.6283 74.2602 27.8373C74.1235 28.0186 74.0471 28.21 74.0324 28.4127L74.0216 28.5588H75.4909V28.4908H75.4895ZM75.952 28.6469H74.0216V28.72L74.027 28.7779C74.0565 29.1015 74.157 29.3684 74.3273 29.5775C74.5243 29.8217 74.7857 29.9439 75.1115 29.9439C75.3233 29.9439 75.5646 29.8696 75.8354 29.7197L75.8582 29.7663C75.5954 29.9262 75.3005 30.0068 74.9734 30.0068C74.5538 30.0068 74.2133 29.886 73.9492 29.6429C73.6865 29.4012 73.5538 29.0826 73.5538 28.6885C73.5538 28.4027 73.6315 28.1534 73.787 27.9406C73.9546 27.7101 74.1798 27.5666 74.4653 27.5062C74.5994 27.4785 74.7308 27.4646 74.8608 27.4646C75.2134 27.4646 75.4855 27.5729 75.6786 27.7882C75.8609 27.9909 75.9507 28.2604 75.9507 28.5978V28.6469H75.952Z" fill="black"/>
<path fill-rule="evenodd" clip-rule="evenodd" d="M40.9473 1.00347C37.8748 3.03197 36.8506 6.95677 32.8718 5.24935C37.1402 4.97863 37.3318 2.43009 40.1256 1.07146C37.8024 0.176202 34.1105 0.779339 33.085 3.62881C33.9537 2.93879 35.3224 1.54742 38.8949 1.42655C35.5409 2.1279 33.5341 3.76606 32.3369 5.12973C31.6157 0.5678 36.2272 -1.33605 40.9473 1.00347Z" fill="#75B051"/>
<path d="M5.33141 2.86707C4.91583 2.86707 4.39435 2.92121 3.77636 3.03076V9.55446C4.45602 9.77229 5.12228 9.88058 5.77379 9.88058C7.9589 9.88058 9.05146 8.83422 9.05146 6.7415C9.05146 5.573 8.74715 4.64878 8.1439 3.96883C7.49507 3.23474 6.55802 2.86707 5.33141 2.86707ZM12.675 17.5451C10.8371 17.5451 9.23109 16.301 7.85702 13.8142L6.55534 11.4709C6.34219 11.0768 6.14244 10.8124 5.95879 10.6764C5.75636 10.4724 5.4601 10.3364 5.05793 10.2684L3.7777 10.0644V14.8555C3.7777 15.7117 3.86081 16.2696 4.03106 16.5277C4.2737 16.8941 4.78714 17.0779 5.57941 17.0779V17.2618L2.80177 17.2001C2.6275 17.2001 2.09261 17.2101 1.19578 17.2303L0 17.2605V17.0364C0.796292 17.0364 1.31643 16.8462 1.56309 16.466C1.75077 16.1802 1.84461 15.6337 1.84461 14.8316V4.88928C1.84461 4.25089 1.77892 3.79129 1.64889 3.52057C1.44646 3.08616 1.03357 2.86833 0.411552 2.86833H0V2.60391H2.66905C3.00151 2.60391 3.50154 2.58754 4.16646 2.55354C4.83272 2.51954 5.33141 2.50317 5.66386 2.50317C9.22305 2.50317 11.0033 3.75352 11.0033 6.25043C11.0033 7.1885 10.7352 7.97673 10.2003 8.61513C9.66543 9.251 8.91204 9.67156 7.94282 9.87555L7.46558 9.97754C8.00448 10.5618 8.53936 11.2896 9.06486 12.1584L10.5113 14.5873C11.5637 16.3438 12.6281 17.2202 13.6952 17.2202C13.797 17.2202 13.8761 17.2202 13.9338 17.2202V17.4103C13.5437 17.501 13.1241 17.5451 12.675 17.5451Z" fill="black"/>
<path d="M15.9312 17.2188C15.8159 17.2188 15.3735 17.2188 14.6067 17.2188L13.5866 17.2591V16.9947C14.108 16.9947 14.4834 16.8927 14.7153 16.6887C14.8896 16.5388 14.9968 16.1787 15.0411 15.6083L15.0625 15.3024V10.3287C15.0625 9.51274 14.8172 9.10603 14.3252 9.10603C14.1952 9.10603 13.9123 9.14003 13.4793 9.20802L13.5008 8.96375C14.8024 8.48779 15.8883 8.03323 16.757 7.59756V14.6854C16.757 15.4497 16.7932 15.9458 16.8656 16.1775C17.0251 16.6975 17.3938 16.9758 17.9729 17.0173L18.2986 17.0375L18.2772 17.2616L15.9312 17.2188ZM15.9312 5.70127C15.5693 5.70127 15.273 5.57913 15.0411 5.33485C14.8092 5.09058 14.6939 4.79845 14.6939 4.45848C14.6939 4.14621 14.8172 3.86667 15.0625 3.6224C15.3092 3.37812 15.5974 3.25598 15.9312 3.25598C16.2784 3.25598 16.572 3.37434 16.8106 3.61232C17.0492 3.8503 17.1685 4.13236 17.1685 4.45848C17.1685 4.79845 17.0533 5.09058 16.8213 5.33485C16.5894 5.57787 16.2932 5.70127 15.9312 5.70127Z" fill="black"/>
<path d="M19.4689 17.2806L26.2629 8.16803H23.2024C22.3056 8.16803 21.6835 8.25617 21.3363 8.43245C20.8296 8.69058 20.5038 9.20684 20.3591 9.98122C20.3296 10.1449 20.3229 10.2733 20.3376 10.369H20.1633V7.8822H28.3568L21.5629 16.9947H24.6851C27.0981 16.9947 28.3019 16.2606 28.3019 14.7925H28.4534V17.2793H19.4689V17.2806Z" fill="black"/>
<path d="M60.6308 17.1987C60.2983 17.1849 59.8385 17.1924 59.2487 17.2189C58.5971 17.2591 58.1454 17.2806 57.8853 17.2806V17.0564C58.6521 17.0564 59.1588 16.8801 59.4042 16.5263C59.5918 16.2543 59.687 15.7242 59.687 14.936V10.1449H50.5712V15.3566C50.5712 15.9849 50.7053 16.4268 50.9734 16.685C51.2415 16.9469 51.708 17.0753 52.3729 17.0753V17.2793L49.4317 17.1974L46.8378 17.2793V17.0753C47.6475 17.0753 48.1756 16.8915 48.4223 16.5251C48.61 16.2392 48.7052 15.6789 48.7052 14.8504V5.0516C48.7052 4.22308 48.6113 3.66905 48.4223 3.39707C48.177 3.03065 47.6488 2.84682 46.8378 2.84682V2.60254L49.594 2.68438C49.7682 2.68438 50.2951 2.67053 51.1892 2.64409L52.3716 2.6038V2.84808C51.6008 2.84808 51.0914 3.02436 50.8487 3.37818C50.6637 3.65016 50.5699 4.18656 50.5699 4.98864V9.75834H59.6857V5.04908C59.6857 4.20671 59.6026 3.65645 59.4323 3.39833C59.1897 3.03191 58.6762 2.84808 57.884 2.84808V2.6038C58.1695 2.6038 58.7017 2.61765 59.4792 2.64409L60.6402 2.68438C60.7702 2.68438 61.3024 2.67053 62.2354 2.64409L63.4178 2.6038V2.84808C62.7301 2.84808 62.2461 2.97399 61.9673 3.22582C61.6885 3.47765 61.5517 3.92214 61.5517 4.56053V14.8353C61.5517 15.6915 61.6389 16.2493 61.8118 16.5074C62.0571 16.8738 62.5853 17.0577 63.3963 17.0577L63.4178 17.2818C63.1711 17.2818 62.647 17.268 61.8399 17.2415L60.6308 17.1987Z" fill="black"/>
<path d="M72.6006 11.6535C72.6006 10.689 72.4049 9.85921 72.0148 9.16668C71.5228 8.31045 70.807 7.88233 69.8659 7.88233C69.0843 7.88233 68.3966 8.2903 67.8041 9.10498C67.2692 9.81136 66.9716 10.5593 66.914 11.3475L66.8711 11.9179H72.6006V11.6535ZM74.4023 12.2655H66.8711V12.5513L66.8925 12.7754C67.0078 14.0396 67.3993 15.0797 68.0642 15.8944C68.831 16.8463 69.8511 17.321 71.1247 17.321C71.9491 17.321 72.8902 17.0289 73.9465 16.4446L74.0337 16.6285C73.0068 17.253 71.8566 17.5665 70.5831 17.5665C68.9476 17.5665 67.6164 17.0943 66.5896 16.15C65.5627 15.2056 65.0479 13.9653 65.0479 12.4292C65.0479 11.3148 65.3522 10.3427 65.9595 9.5142C66.611 8.61768 67.4931 8.05358 68.6071 7.82189C69.1286 7.71361 69.642 7.6582 70.1487 7.6582C71.5228 7.6582 72.5872 8.08002 73.3393 8.9224C74.0484 9.71063 74.4023 10.7645 74.4023 12.0829V12.2655Z" fill="black"/>
<path d="M81.6373 8.65662C81.0917 8.65662 80.5635 8.86438 80.0528 9.27864C79.5434 9.68913 79.286 10.155 79.286 10.6713V15.5908C79.286 16.5389 79.7847 17.0149 80.7834 17.0149V17.2793C80.5957 17.2793 80.1533 17.2655 79.4589 17.239H78.4173C78.3154 17.239 77.8744 17.239 77.0928 17.239L76.0726 17.2793V17.0149C77.0714 17.0149 77.5701 16.4445 77.5701 15.3025V10.2885C77.5701 9.47255 77.3274 9.06584 76.8435 9.06584C76.6303 9.06584 76.3515 9.10614 76.0083 9.18798L75.9654 8.92356C77.1732 8.51559 78.2806 8.06104 79.286 7.55737V10.2482L79.6519 9.49396C80.4442 8.25747 81.3518 7.63922 82.372 7.63922C82.7044 7.63922 83.0127 7.68707 83.301 7.7815V9.69794C82.9873 9.00415 82.4296 8.65662 81.6373 8.65662Z" fill="black"/>
<path d="M89.8134 8.20836C88.7718 8.20836 87.8602 8.63018 87.0787 9.47633V16.7303C87.7302 17.1245 88.4393 17.3222 89.2061 17.3222C90.5078 17.3222 91.5213 16.826 92.2452 15.83C92.8967 14.9575 93.2225 13.8834 93.2225 12.6016C93.2225 11.4016 92.9772 10.4131 92.4852 9.63877C91.8886 8.68432 90.9998 8.20836 89.8134 8.20836ZM89.552 17.4644C89.06 17.4644 88.5385 17.4166 87.9889 17.3222L85.407 16.8726V3.78116C85.407 2.86072 85.1322 2.3986 84.5825 2.3986C84.4525 2.3986 84.2058 2.4326 83.8452 2.5006L83.7795 2.25632C84.923 1.8899 86.0223 1.44038 87.0787 0.910278V9.20813C87.7154 8.68432 88.2289 8.3242 88.6203 8.13407C89.17 7.85831 89.7853 7.71981 90.4649 7.71981C91.8538 7.71981 92.957 8.12777 93.7748 8.94245C94.5925 9.75838 95.0014 10.8249 95.0014 12.1432C95.0014 13.7474 94.5161 15.0343 93.5469 16.0063C92.5763 16.9784 91.2451 17.4644 89.552 17.4644Z" fill="black"/>
<path d="M35.8559 11.9393C35.3787 12.0476 34.9014 12.1911 34.4228 12.3674C33.4241 12.7477 32.774 13.0473 32.4697 13.2639C31.8182 13.7122 31.4924 14.304 31.4924 15.0381C31.4924 16.3161 32.093 16.9545 33.2941 16.9545C34.1038 16.9545 34.9577 16.5201 35.8559 15.65V11.9393ZM36.3331 17.647C36.1455 17.3889 35.9926 17.0212 35.8773 16.5465C35.8479 16.4382 35.805 16.2481 35.7473 15.9761C34.6333 17.0225 33.4684 17.5463 32.2525 17.5463C31.0809 17.5463 30.2913 17.064 29.8864 16.0958C29.7416 15.7558 29.6693 15.4297 29.6693 15.1136C29.6693 14.4475 30.0955 13.8696 30.9495 13.3772C31.412 13.1191 32.1788 12.827 33.2499 12.5009L35.8546 11.7227V10.1072C35.8546 9.4814 35.7165 8.9727 35.4417 8.5748C35.124 8.11269 34.6454 7.88226 34.0086 7.88226C33.5461 7.88226 33.1118 8.0044 32.7069 8.25246C32.2445 8.52444 32.0125 8.87448 32.0125 9.29882C32.0125 9.55694 32.0782 9.88684 32.2083 10.2847L30.6452 10.7569C30.6023 10.6486 30.5661 10.4786 30.5366 10.247C30.5366 9.49902 31.0862 8.85433 32.1855 8.31038C33.1399 7.83442 34.0743 7.59644 34.9859 7.59644C35.7379 7.59644 36.3425 7.80671 36.7983 8.22853C37.2541 8.65035 37.482 9.21445 37.482 9.92084V15.242C37.482 16.0026 37.7783 16.3841 38.3721 16.3841C38.5464 16.3841 38.7917 16.3161 39.1094 16.1801L39.1751 16.3438L36.3331 17.647Z" fill="black"/>
<path d="M80.8022 22.1536H14.1979V22.5993H80.8022V22.1536Z" fill="#75B051"/>
</svg>
